<svg width="25" height="20" viewBox="0 0 25 20" fill="none" xmlns="http://www.w3.org/2000/svg">
<path d="M1.02735 7.72878L0.513683 8.23926L0 7.72878L0.513683 7.21837L1.02735 7.72878ZM25 19.2782C25 19.6768 24.6747 20 24.2736 20C23.8724 20 23.5471 19.6768 23.5471 19.2782H25ZM7.77812 15.4576L0.513683 8.23926L1.54102 7.21837L8.80546 14.4367L7.77812 15.4576ZM0.513683 7.21837L7.77812 0L8.80546 1.02082L1.54102 8.23926L0.513683 7.21837ZM1.02735 7.00694H15.5562V8.45061H1.02735V7.00694ZM25 16.3908V19.2782H23.5471V16.3908H25ZM15.5562 7.00694C20.7718 7.00694 25 11.2082 25 16.3908H23.5471C23.5471 12.0055 19.9695 8.45061 15.5562 8.45061V7.00694Z" fill="black"/>
</svg>
